<?xml version="1.0" encoding="utf-8" standalone="no"?>
<!DOCTYPE svg PUBLIC "-//W3C//DTD SVG 1.1//EN"
  "http://www.w3.org/Graphics/SVG/1.1/DTD/svg11.dtd">
<svg xmlns:xlink="http://www.w3.org/1999/xlink" width="504pt" height="208.8pt" viewBox="0 0 504 208.8" xmlns="http://www.w3.org/2000/svg" version="1.1">
 <metadata>
  <rdf:RDF xmlns:dc="http://purl.org/dc/elements/1.1/" xmlns:cc="http://creativecommons.org/ns#" xmlns:rdf="http://www.w3.org/1999/02/22-rdf-syntax-ns#">
   <cc:Work>
    <dc:type rdf:resource="http://purl.org/dc/dcmitype/StillImage"/>
    <dc:format>image/svg+xml</dc:format>
    <dc:creator>
     <cc:Agent>
      <dc:title>Matplotlib v3.9.4, https://matplotlib.org/</dc:title>
     </cc:Agent>
    </dc:creator>
   </cc:Work>
  </rdf:RDF>
 </metadata>
 <defs>
  <style type="text/css">*{stroke-linejoin: round; stroke-linecap: butt}</style>
 </defs>
 <g id="figure_1">
  <g id="patch_1">
   <path d="M 0 208.8 
L 504 208.8 
L 504 0 
L 0 0 
z
" style="fill: #ffffff"/>
  </g>
  <g id="axes_1">
   <g id="patch_2">
    <path d="M 42.84 173.304 
L 253.625047 173.304 
L 253.625047 45.936 
L 42.84 45.936 
z
" style="fill: #ffffff"/>
   </g>
   <g id="matplotlib.axis_1">
    <g id="xtick_1">
     <g id="line2d_1">
      <defs>
       <path id="m6a336a2ff8" d="M 0 0 
L 0 3 
" style="stroke: #000000; stroke-width: 0.65"/>
      </defs>
      <g>
       <use xlink:href="#m6a336a2ff8" x="52.759296" y="173.304" style="stroke: #000000; stroke-width: 0.65"/>
      </g>
     </g>
     <g id="text_1">
      <!-- 1 -->
      <g transform="translate(50.214296 185.38275) scale(0.08 -0.08)">
       <defs>
        <path id="DejaVuSans-31" d="M 794 531 
L 1825 531 
L 1825 4091 
L 703 3866 
L 703 4441 
L 1819 4666 
L 2450 4666 
L 2450 531 
L 3481 531 
L 3481 0 
L 794 0 
L 794 531 
z
" transform="scale(0.015625)"/>
       </defs>
       <use xlink:href="#DejaVuSans-31"/>
      </g>
     </g>
    </g>
    <g id="xtick_2">
     <g id="line2d_2">
      <g>
       <use xlink:href="#m6a336a2ff8" x="77.557537" y="173.304" style="stroke: #000000; stroke-width: 0.65"/>
      </g>
     </g>
     <g id="text_2">
      <!-- 2 -->
      <g transform="translate(75.012537 185.38275) scale(0.08 -0.08)">
       <defs>
        <path id="DejaVuSans-32" d="M 1228 531 
L 3431 531 
L 3431 0 
L 469 0 
L 469 531 
Q 828 903 1448 1529 
Q 2069 2156 2228 2338 
Q 2531 2678 2651 2914 
Q 2772 3150 2772 3378 
Q 2772 3750 2511 3984 
Q 2250 4219 1831 4219 
Q 1534 4219 1204 4116 
Q 875 4013 500 3803 
L 500 4441 
Q 881 4594 1212 4672 
Q 1544 4750 1819 4750 
Q 2544 4750 2975 4387 
Q 3406 4025 3406 3419 
Q 3406 3131 3298 2873 
Q 3191 2616 2906 2266 
Q 2828 2175 2409 1742 
Q 1991 1309 1228 531 
z
" transform="scale(0.015625)"/>
       </defs>
       <use xlink:href="#DejaVuSans-32"/>
      </g>
     </g>
    </g>
    <g id="xtick_3">
     <g id="line2d_3">
      <g>
       <use xlink:href="#m6a336a2ff8" x="127.154019" y="173.304" style="stroke: #000000; stroke-width: 0.65"/>
      </g>
     </g>
     <g id="text_3">
      <!-- 4 -->
      <g transform="translate(124.609019 185.38275) scale(0.08 -0.08)">
       <defs>
        <path id="DejaVuSans-34" d="M 2419 4116 
L 825 1625 
L 2419 1625 
L 2419 4116 
z
M 2253 4666 
L 3047 4666 
L 3047 1625 
L 3713 1625 
L 3713 1100 
L 3047 1100 
L 3047 0 
L 2419 0 
L 2419 1100 
L 313 1100 
L 313 1709 
L 2253 4666 
z
" transform="scale(0.015625)"/>
       </defs>
       <use xlink:href="#DejaVuSans-34"/>
      </g>
     </g>
    </g>
    <g id="xtick_4">
     <g id="line2d_4">
      <g>
       <use xlink:href="#m6a336a2ff8" x="176.7505" y="173.304" style="stroke: #000000; stroke-width: 0.65"/>
      </g>
     </g>
     <g id="text_4">
      <!-- 6 -->
      <g transform="translate(174.2055 185.38275) scale(0.08 -0.08)">
       <defs>
        <path id="DejaVuSans-36" d="M 2113 2584 
Q 1688 2584 1439 2293 
Q 1191 2003 1191 1497 
Q 1191 994 1439 701 
Q 1688 409 2113 409 
Q 2538 409 2786 701 
Q 3034 994 3034 1497 
Q 3034 2003 2786 2293 
Q 2538 2584 2113 2584 
z
M 3366 4563 
L 3366 3988 
Q 3128 4100 2886 4159 
Q 2644 4219 2406 4219 
Q 1781 4219 1451 3797 
Q 1122 3375 1075 2522 
Q 1259 2794 1537 2939 
Q 1816 3084 2150 3084 
Q 2853 3084 3261 2657 
Q 3669 2231 3669 1497 
Q 3669 778 3244 343 
Q 2819 -91 2113 -91 
Q 1303 -91 875 529 
Q 447 1150 447 2328 
Q 447 3434 972 4092 
Q 1497 4750 2381 4750 
Q 2619 4750 2861 4703 
Q 3103 4656 3366 4563 
z
" transform="scale(0.015625)"/>
       </defs>
       <use xlink:href="#DejaVuSans-36"/>
      </g>
     </g>
    </g>
    <g id="xtick_5">
     <g id="line2d_5">
      <g>
       <use xlink:href="#m6a336a2ff8" x="226.346982" y="173.304" style="stroke: #000000; stroke-width: 0.65"/>
      </g>
     </g>
     <g id="text_5">
      <!-- 8 -->
      <g transform="translate(223.801982 185.38275) scale(0.08 -0.08)">
       <defs>
        <path id="DejaVuSans-38" d="M 2034 2216 
Q 1584 2216 1326 1975 
Q 1069 1734 1069 1313 
Q 1069 891 1326 650 
Q 1584 409 2034 409 
Q 2484 409 2743 651 
Q 3003 894 3003 1313 
Q 3003 1734 2745 1975 
Q 2488 2216 2034 2216 
z
M 1403 2484 
Q 997 2584 770 2862 
Q 544 3141 544 3541 
Q 544 4100 942 4425 
Q 1341 4750 2034 4750 
Q 2731 4750 3128 4425 
Q 3525 4100 3525 3541 
Q 3525 3141 3298 2862 
Q 3072 2584 2669 2484 
Q 3125 2378 3379 2068 
Q 3634 1759 3634 1313 
Q 3634 634 3220 271 
Q 2806 -91 2034 -91 
Q 1263 -91 848 271 
Q 434 634 434 1313 
Q 434 1759 690 2068 
Q 947 2378 1403 2484 
z
M 1172 3481 
Q 1172 3119 1398 2916 
Q 1625 2713 2034 2713 
Q 2441 2713 2670 2916 
Q 2900 3119 2900 3481 
Q 2900 3844 2670 4047 
Q 2441 4250 2034 4250 
Q 1625 4250 1398 4047 
Q 1172 3844 1172 3481 
z
" transform="scale(0.015625)"/>
       </defs>
       <use xlink:href="#DejaVuSans-38"/>
      </g>
     </g>
    </g>
    <g id="text_6">
     <!-- Number of agents, N -->
     <g transform="translate(101.38682 197.885094) scale(0.09 -0.09)">
      <defs>
       <path id="DejaVuSans-4e" d="M 628 4666 
L 1478 4666 
L 3547 763 
L 3547 4666 
L 4159 4666 
L 4159 0 
L 3309 0 
L 1241 3903 
L 1241 0 
L 628 0 
L 628 4666 
z
" transform="scale(0.015625)"/>
       <path id="DejaVuSans-75" d="M 544 1381 
L 544 3500 
L 1119 3500 
L 1119 1403 
Q 1119 906 1312 657 
Q 1506 409 1894 409 
Q 2359 409 2629 706 
Q 2900 1003 2900 1516 
L 2900 3500 
L 3475 3500 
L 3475 0 
L 2900 0 
L 2900 538 
Q 2691 219 2414 64 
Q 2138 -91 1772 -91 
Q 1169 -91 856 284 
Q 544 659 544 1381 
z
M 1991 3584 
L 1991 3584 
z
" transform="scale(0.015625)"/>
       <path id="DejaVuSans-6d" d="M 3328 2828 
Q 3544 3216 3844 3400 
Q 4144 3584 4550 3584 
Q 5097 3584 5394 3201 
Q 5691 2819 5691 2113 
L 5691 0 
L 5113 0 
L 5113 2094 
Q 5113 2597 4934 2840 
Q 4756 3084 4391 3084 
Q 3944 3084 3684 2787 
Q 3425 2491 3425 1978 
L 3425 0 
L 2847 0 
L 2847 2094 
Q 2847 2600 2669 2842 
Q 2491 3084 2119 3084 
Q 1678 3084 1418 2786 
Q 1159 2488 1159 1978 
L 1159 0 
L 581 0 
L 581 3500 
L 1159 3500 
L 1159 2956 
Q 1356 3278 1631 3431 
Q 1906 3584 2284 3584 
Q 2666 3584 2933 3390 
Q 3200 3197 3328 2828 
z
" transform="scale(0.015625)"/>
       <path id="DejaVuSans-62" d="M 3116 1747 
Q 3116 2381 2855 2742 
Q 2594 3103 2138 3103 
Q 1681 3103 1420 2742 
Q 1159 2381 1159 1747 
Q 1159 1113 1420 752 
Q 1681 391 2138 391 
Q 2594 391 2855 752 
Q 3116 1113 3116 1747 
z
M 1159 2969 
Q 1341 3281 1617 3432 
Q 1894 3584 2278 3584 
Q 2916 3584 3314 3078 
Q 3713 2572 3713 1747 
Q 3713 922 3314 415 
Q 2916 -91 2278 -91 
Q 1894 -91 1617 61 
Q 1341 213 1159 525 
L 1159 0 
L 581 0 
L 581 4863 
L 1159 4863 
L 1159 2969 
z
" transform="scale(0.015625)"/>
       <path id="DejaVuSans-65" d="M 3597 1894 
L 3597 1613 
L 953 1613 
Q 991 1019 1311 708 
Q 1631 397 2203 397 
Q 2534 397 2845 478 
Q 3156 559 3463 722 
L 3463 178 
Q 3153 47 2828 -22 
Q 2503 -91 2169 -91 
Q 1331 -91 842 396 
Q 353 884 353 1716 
Q 353 2575 817 3079 
Q 1281 3584 2069 3584 
Q 2775 3584 3186 3129 
Q 3597 2675 3597 1894 
z
M 3022 2063 
Q 3016 2534 2758 2815 
Q 2500 3097 2075 3097 
Q 1594 3097 1305 2825 
Q 1016 2553 972 2059 
L 3022 2063 
z
" transform="scale(0.015625)"/>
       <path id="DejaVuSans-72" d="M 2631 2963 
Q 2534 3019 2420 3045 
Q 2306 3072 2169 3072 
Q 1681 3072 1420 2755 
Q 1159 2438 1159 1844 
L 1159 0 
L 581 0 
L 581 3500 
L 1159 3500 
L 1159 2956 
Q 1341 3275 1631 3429 
Q 1922 3584 2338 3584 
Q 2397 3584 2469 3576 
Q 2541 3569 2628 3553 
L 2631 2963 
z
" transform="scale(0.015625)"/>
       <path id="DejaVuSans-20" transform="scale(0.015625)"/>
       <path id="DejaVuSans-6f" d="M 1959 3097 
Q 1497 3097 1228 2736 
Q 959 2375 959 1747 
Q 959 1119 1226 758 
Q 1494 397 1959 397 
Q 2419 397 2687 759 
Q 2956 1122 2956 1747 
Q 2956 2369 2687 2733 
Q 2419 3097 1959 3097 
z
M 1959 3584 
Q 2709 3584 3137 3096 
Q 3566 2609 3566 1747 
Q 3566 888 3137 398 
Q 2709 -91 1959 -91 
Q 1206 -91 779 398 
Q 353 888 353 1747 
Q 353 2609 779 3096 
Q 1206 3584 1959 3584 
z
" transform="scale(0.015625)"/>
       <path id="DejaVuSans-66" d="M 2375 4863 
L 2375 4384 
L 1825 4384 
Q 1516 4384 1395 4259 
Q 1275 4134 1275 3809 
L 1275 3500 
L 2222 3500 
L 2222 3053 
L 1275 3053 
L 1275 0 
L 697 0 
L 697 3053 
L 147 3053 
L 147 3500 
L 697 3500 
L 697 3744 
Q 697 4328 969 4595 
Q 1241 4863 1831 4863 
L 2375 4863 
z
" transform="scale(0.015625)"/>
       <path id="DejaVuSans-61" d="M 2194 1759 
Q 1497 1759 1228 1600 
Q 959 1441 959 1056 
Q 959 750 1161 570 
Q 1363 391 1709 391 
Q 2188 391 2477 730 
Q 2766 1069 2766 1631 
L 2766 1759 
L 2194 1759 
z
M 3341 1997 
L 3341 0 
L 2766 0 
L 2766 531 
Q 2569 213 2275 61 
Q 1981 -91 1556 -91 
Q 1019 -91 701 211 
Q 384 513 384 1019 
Q 384 1609 779 1909 
Q 1175 2209 1959 2209 
L 2766 2209 
L 2766 2266 
Q 2766 2663 2505 2880 
Q 2244 3097 1772 3097 
Q 1472 3097 1187 3025 
Q 903 2953 641 2809 
L 641 3341 
Q 956 3463 1253 3523 
Q 1550 3584 1831 3584 
Q 2591 3584 2966 3190 
Q 3341 2797 3341 1997 
z
" transform="scale(0.015625)"/>
       <path id="DejaVuSans-67" d="M 2906 1791 
Q 2906 2416 2648 2759 
Q 2391 3103 1925 3103 
Q 1463 3103 1205 2759 
Q 947 2416 947 1791 
Q 947 1169 1205 825 
Q 1463 481 1925 481 
Q 2391 481 2648 825 
Q 2906 1169 2906 1791 
z
M 3481 434 
Q 3481 -459 3084 -895 
Q 2688 -1331 1869 -1331 
Q 1566 -1331 1297 -1286 
Q 1028 -1241 775 -1147 
L 775 -588 
Q 1028 -725 1275 -790 
Q 1522 -856 1778 -856 
Q 2344 -856 2625 -561 
Q 2906 -266 2906 331 
L 2906 616 
Q 2728 306 2450 153 
Q 2172 0 1784 0 
Q 1141 0 747 490 
Q 353 981 353 1791 
Q 353 2603 747 3093 
Q 1141 3584 1784 3584 
Q 2172 3584 2450 3431 
Q 2728 3278 2906 2969 
L 2906 3500 
L 3481 3500 
L 3481 434 
z
" transform="scale(0.015625)"/>
       <path id="DejaVuSans-6e" d="M 3513 2113 
L 3513 0 
L 2938 0 
L 2938 2094 
Q 2938 2591 2744 2837 
Q 2550 3084 2163 3084 
Q 1697 3084 1428 2787 
Q 1159 2491 1159 1978 
L 1159 0 
L 581 0 
L 581 3500 
L 1159 3500 
L 1159 2956 
Q 1366 3272 1645 3428 
Q 1925 3584 2291 3584 
Q 2894 3584 3203 3211 
Q 3513 2838 3513 2113 
z
" transform="scale(0.015625)"/>
       <path id="DejaVuSans-74" d="M 1172 4494 
L 1172 3500 
L 2356 3500 
L 2356 3053 
L 1172 3053 
L 1172 1153 
Q 1172 725 1289 603 
Q 1406 481 1766 481 
L 2356 481 
L 2356 0 
L 1766 0 
Q 1100 0 847 248 
Q 594 497 594 1153 
L 594 3053 
L 172 3053 
L 172 3500 
L 594 3500 
L 594 4494 
L 1172 4494 
z
" transform="scale(0.015625)"/>
       <path id="DejaVuSans-73" d="M 2834 3397 
L 2834 2853 
Q 2591 2978 2328 3040 
Q 2066 3103 1784 3103 
Q 1356 3103 1142 2972 
Q 928 2841 928 2578 
Q 928 2378 1081 2264 
Q 1234 2150 1697 2047 
L 1894 2003 
Q 2506 1872 2764 1633 
Q 3022 1394 3022 966 
Q 3022 478 2636 193 
Q 2250 -91 1575 -91 
Q 1294 -91 989 -36 
Q 684 19 347 128 
L 347 722 
Q 666 556 975 473 
Q 1284 391 1588 391 
Q 1994 391 2212 530 
Q 2431 669 2431 922 
Q 2431 1156 2273 1281 
Q 2116 1406 1581 1522 
L 1381 1569 
Q 847 1681 609 1914 
Q 372 2147 372 2553 
Q 372 3047 722 3315 
Q 1072 3584 1716 3584 
Q 2034 3584 2315 3537 
Q 2597 3491 2834 3397 
z
" transform="scale(0.015625)"/>
       <path id="DejaVuSans-2c" d="M 750 794 
L 1409 794 
L 1409 256 
L 897 -744 
L 494 -744 
L 750 256 
L 750 794 
z
" transform="scale(0.015625)"/>
      </defs>
      <use xlink:href="#DejaVuSans-4e"/>
      <use xlink:href="#DejaVuSans-75" x="74.804688"/>
      <use xlink:href="#DejaVuSans-6d" x="138.183594"/>
      <use xlink:href="#DejaVuSans-62" x="235.595703"/>
      <use xlink:href="#DejaVuSans-65" x="299.072266"/>
      <use xlink:href="#DejaVuSans-72" x="360.595703"/>
      <use xlink:href="#DejaVuSans-20" x="401.708984"/>
      <use xlink:href="#DejaVuSans-6f" x="433.496094"/>
      <use xlink:href="#DejaVuSans-66" x="494.677734"/>
      <use xlink:href="#DejaVuSans-20" x="529.882812"/>
      <use xlink:href="#DejaVuSans-61" x="561.669922"/>
      <use xlink:href="#DejaVuSans-67" x="622.949219"/>
      <use xlink:href="#DejaVuSans-65" x="686.425781"/>
      <use xlink:href="#DejaVuSans-6e" x="747.949219"/>
      <use xlink:href="#DejaVuSans-74" x="811.328125"/>
      <use xlink:href="#DejaVuSans-73" x="850.537109"/>
      <use xlink:href="#DejaVuSans-2c" x="902.636719"/>
      <use xlink:href="#DejaVuSans-20" x="934.423828"/>
      <use xlink:href="#DejaVuSans-4e" x="966.210938"/>
     </g>
    </g>
   </g>
   <g id="matplotlib.axis_2">
    <g id="ytick_1">
     <g id="line2d_6">
      <path d="M 42.84 173.304 
L 253.625047 173.304 
" clip-path="url(#p676dc282fa)" style="fill: none; stroke: #e4e4e4; stroke-width: 0.55; stroke-linecap: square"/>
     </g>
     <g id="line2d_7">
      <defs>
       <path id="m502edeb7ee" d="M 0 0 
L -3 0 
" style="stroke: #000000; stroke-width: 0.65"/>
      </defs>
      <g>
       <use xlink:href="#m502edeb7ee" x="42.84" y="173.304" style="stroke: #000000; stroke-width: 0.65"/>
      </g>
     </g>
     <g id="text_7">
      <!-- 50 -->
      <g transform="translate(26.66 176.343375) scale(0.08 -0.08)">
       <defs>
        <path id="DejaVuSans-35" d="M 691 4666 
L 3169 4666 
L 3169 4134 
L 1269 4134 
L 1269 2991 
Q 1406 3038 1543 3061 
Q 1681 3084 1819 3084 
Q 2600 3084 3056 2656 
Q 3513 2228 3513 1497 
Q 3513 744 3044 326 
Q 2575 -91 1722 -91 
Q 1428 -91 1123 -41 
Q 819 9 494 109 
L 494 744 
Q 775 591 1075 516 
Q 1375 441 1709 441 
Q 2250 441 2565 725 
Q 2881 1009 2881 1497 
Q 2881 1984 2565 2268 
Q 2250 2553 1709 2553 
Q 1456 2553 1204 2497 
Q 953 2441 691 2322 
L 691 4666 
z
" transform="scale(0.015625)"/>
        <path id="DejaVuSans-30" d="M 2034 4250 
Q 1547 4250 1301 3770 
Q 1056 3291 1056 2328 
Q 1056 1369 1301 889 
Q 1547 409 2034 409 
Q 2525 409 2770 889 
Q 3016 1369 3016 2328 
Q 3016 3291 2770 3770 
Q 2525 4250 2034 4250 
z
M 2034 4750 
Q 2819 4750 3233 4129 
Q 3647 3509 3647 2328 
Q 3647 1150 3233 529 
Q 2819 -91 2034 -91 
Q 1250 -91 836 529 
Q 422 1150 422 2328 
Q 422 3509 836 4129 
Q 1250 4750 2034 4750 
z
" transform="scale(0.015625)"/>
       </defs>
       <use xlink:href="#DejaVuSans-35"/>
       <use xlink:href="#DejaVuSans-30" x="63.623047"/>
      </g>
     </g>
    </g>
    <g id="ytick_2">
     <g id="line2d_8">
      <path d="M 42.84 149.717333 
L 253.625047 149.717333 
" clip-path="url(#p676dc282fa)" style="fill: none; stroke: #e4e4e4; stroke-width: 0.55; stroke-linecap: square"/>
     </g>
     <g id="line2d_9">
      <g>
       <use xlink:href="#m502edeb7ee" x="42.84" y="149.717333" style="stroke: #000000; stroke-width: 0.65"/>
      </g>
     </g>
     <g id="text_8">
      <!-- 60 -->
      <g transform="translate(26.66 152.756708) scale(0.08 -0.08)">
       <use xlink:href="#DejaVuSans-36"/>
       <use xlink:href="#DejaVuSans-30" x="63.623047"/>
      </g>
     </g>
    </g>
    <g id="ytick_3">
     <g id="line2d_10">
      <path d="M 42.84 126.130667 
L 253.625047 126.130667 
" clip-path="url(#p676dc282fa)" style="fill: none; stroke: #e4e4e4; stroke-width: 0.55; stroke-linecap: square"/>
     </g>
     <g id="line2d_11">
      <g>
       <use xlink:href="#m502edeb7ee" x="42.84" y="126.130667" style="stroke: #000000; stroke-width: 0.65"/>
      </g>
     </g>
     <g id="text_9">
      <!-- 70 -->
      <g transform="translate(26.66 129.170042) scale(0.08 -0.08)">
       <defs>
        <path id="DejaVuSans-37" d="M 525 4666 
L 3525 4666 
L 3525 4397 
L 1831 0 
L 1172 0 
L 2766 4134 
L 525 4134 
L 525 4666 
z
" transform="scale(0.015625)"/>
       </defs>
       <use xlink:href="#DejaVuSans-37"/>
       <use xlink:href="#DejaVuSans-30" x="63.623047"/>
      </g>
     </g>
    </g>
    <g id="ytick_4">
     <g id="line2d_12">
      <path d="M 42.84 102.544 
L 253.625047 102.544 
" clip-path="url(#p676dc282fa)" style="fill: none; stroke: #e4e4e4; stroke-width: 0.55; stroke-linecap: square"/>
     </g>
     <g id="line2d_13">
      <g>
       <use xlink:href="#m502edeb7ee" x="42.84" y="102.544" style="stroke: #000000; stroke-width: 0.65"/>
      </g>
     </g>
     <g id="text_10">
      <!-- 80 -->
      <g transform="translate(26.66 105.583375) scale(0.08 -0.08)">
       <use xlink:href="#DejaVuSans-38"/>
       <use xlink:href="#DejaVuSans-30" x="63.623047"/>
      </g>
     </g>
    </g>
    <g id="ytick_5">
     <g id="line2d_14">
      <path d="M 42.84 78.957333 
L 253.625047 78.957333 
" clip-path="url(#p676dc282fa)" style="fill: none; stroke: #e4e4e4; stroke-width: 0.55; stroke-linecap: square"/>
     </g>
     <g id="line2d_15">
      <g>
       <use xlink:href="#m502edeb7ee" x="42.84" y="78.957333" style="stroke: #000000; stroke-width: 0.65"/>
      </g>
     </g>
     <g id="text_11">
      <!-- 90 -->
      <g transform="translate(26.66 81.996708) scale(0.08 -0.08)">
       <defs>
        <path id="DejaVuSans-39" d="M 703 97 
L 703 672 
Q 941 559 1184 500 
Q 1428 441 1663 441 
Q 2288 441 2617 861 
Q 2947 1281 2994 2138 
Q 2813 1869 2534 1725 
Q 2256 1581 1919 1581 
Q 1219 1581 811 2004 
Q 403 2428 403 3163 
Q 403 3881 828 4315 
Q 1253 4750 1959 4750 
Q 2769 4750 3195 4129 
Q 3622 3509 3622 2328 
Q 3622 1225 3098 567 
Q 2575 -91 1691 -91 
Q 1453 -91 1209 -44 
Q 966 3 703 97 
z
M 1959 2075 
Q 2384 2075 2632 2365 
Q 2881 2656 2881 3163 
Q 2881 3666 2632 3958 
Q 2384 4250 1959 4250 
Q 1534 4250 1286 3958 
Q 1038 3666 1038 3163 
Q 1038 2656 1286 2365 
Q 1534 2075 1959 2075 
z
" transform="scale(0.015625)"/>
       </defs>
       <use xlink:href="#DejaVuSans-39"/>
       <use xlink:href="#DejaVuSans-30" x="63.623047"/>
      </g>
     </g>
    </g>
    <g id="ytick_6">
     <g id="line2d_16">
      <path d="M 42.84 55.370667 
L 253.625047 55.370667 
" clip-path="url(#p676dc282fa)" style="fill: none; stroke: #e4e4e4; stroke-width: 0.55; stroke-linecap: square"/>
     </g>
     <g id="line2d_17">
      <g>
       <use xlink:href="#m502edeb7ee" x="42.84" y="55.370667" style="stroke: #000000; stroke-width: 0.65"/>
      </g>
     </g>
     <g id="text_12">
      <!-- 100 -->
      <g transform="translate(21.57 58.410042) scale(0.08 -0.08)">
       <use xlink:href="#DejaVuSans-31"/>
       <use xlink:href="#DejaVuSans-30" x="63.623047"/>
       <use xlink:href="#DejaVuSans-30" x="127.246094"/>
      </g>
     </g>
    </g>
    <g id="text_13">
     <!-- Evidence accuracy (%) -->
     <g transform="translate(15.698281 161.048672) rotate(-90) scale(0.09 -0.09)">
      <defs>
       <path id="DejaVuSans-45" d="M 628 4666 
L 3578 4666 
L 3578 4134 
L 1259 4134 
L 1259 2753 
L 3481 2753 
L 3481 2222 
L 1259 2222 
L 1259 531 
L 3634 531 
L 3634 0 
L 628 0 
L 628 4666 
z
" transform="scale(0.015625)"/>
       <path id="DejaVuSans-76" d="M 191 3500 
L 800 3500 
L 1894 563 
L 2988 3500 
L 3597 3500 
L 2284 0 
L 1503 0 
L 191 3500 
z
" transform="scale(0.015625)"/>
       <path id="DejaVuSans-69" d="M 603 3500 
L 1178 3500 
L 1178 0 
L 603 0 
L 603 3500 
z
M 603 4863 
L 1178 4863 
L 1178 4134 
L 603 4134 
L 603 4863 
z
" transform="scale(0.015625)"/>
       <path id="DejaVuSans-64" d="M 2906 2969 
L 2906 4863 
L 3481 4863 
L 3481 0 
L 2906 0 
L 2906 525 
Q 2725 213 2448 61 
Q 2172 -91 1784 -91 
Q 1150 -91 751 415 
Q 353 922 353 1747 
Q 353 2572 751 3078 
Q 1150 3584 1784 3584 
Q 2172 3584 2448 3432 
Q 2725 3281 2906 2969 
z
M 947 1747 
Q 947 1113 1208 752 
Q 1469 391 1925 391 
Q 2381 391 2643 752 
Q 2906 1113 2906 1747 
Q 2906 2381 2643 2742 
Q 2381 3103 1925 3103 
Q 1469 3103 1208 2742 
Q 947 2381 947 1747 
z
" transform="scale(0.015625)"/>
       <path id="DejaVuSans-63" d="M 3122 3366 
L 3122 2828 
Q 2878 2963 2633 3030 
Q 2388 3097 2138 3097 
Q 1578 3097 1268 2742 
Q 959 2388 959 1747 
Q 959 1106 1268 751 
Q 1578 397 2138 397 
Q 2388 397 2633 464 
Q 2878 531 3122 666 
L 3122 134 
Q 2881 22 2623 -34 
Q 2366 -91 2075 -91 
Q 1284 -91 818 406 
Q 353 903 353 1747 
Q 353 2603 823 3093 
Q 1294 3584 2113 3584 
Q 2378 3584 2631 3529 
Q 2884 3475 3122 3366 
z
" transform="scale(0.015625)"/>
       <path id="DejaVuSans-79" d="M 2059 -325 
Q 1816 -950 1584 -1140 
Q 1353 -1331 966 -1331 
L 506 -1331 
L 506 -850 
L 844 -850 
Q 1081 -850 1212 -737 
Q 1344 -625 1503 -206 
L 1606 56 
L 191 3500 
L 800 3500 
L 1894 763 
L 2988 3500 
L 3597 3500 
L 2059 -325 
z
" transform="scale(0.015625)"/>
       <path id="DejaVuSans-28" d="M 1984 4856 
Q 1566 4138 1362 3434 
Q 1159 2731 1159 2009 
Q 1159 1288 1364 580 
Q 1569 -128 1984 -844 
L 1484 -844 
Q 1016 -109 783 600 
Q 550 1309 550 2009 
Q 550 2706 781 3412 
Q 1013 4119 1484 4856 
L 1984 4856 
z
" transform="scale(0.015625)"/>
       <path id="DejaVuSans-25" d="M 4653 2053 
Q 4381 2053 4226 1822 
Q 4072 1591 4072 1178 
Q 4072 772 4226 539 
Q 4381 306 4653 306 
Q 4919 306 5073 539 
Q 5228 772 5228 1178 
Q 5228 1588 5073 1820 
Q 4919 2053 4653 2053 
z
M 4653 2450 
Q 5147 2450 5437 2106 
Q 5728 1763 5728 1178 
Q 5728 594 5436 251 
Q 5144 -91 4653 -91 
Q 4153 -91 3862 251 
Q 3572 594 3572 1178 
Q 3572 1766 3864 2108 
Q 4156 2450 4653 2450 
z
M 1428 4353 
Q 1159 4353 1004 4120 
Q 850 3888 850 3481 
Q 850 3069 1003 2837 
Q 1156 2606 1428 2606 
Q 1700 2606 1854 2837 
Q 2009 3069 2009 3481 
Q 2009 3884 1853 4118 
Q 1697 4353 1428 4353 
z
M 4250 4750 
L 4750 4750 
L 1831 -91 
L 1331 -91 
L 4250 4750 
z
M 1428 4750 
Q 1922 4750 2215 4408 
Q 2509 4066 2509 3481 
Q 2509 2891 2217 2550 
Q 1925 2209 1428 2209 
Q 931 2209 642 2551 
Q 353 2894 353 3481 
Q 353 4063 643 4406 
Q 934 4750 1428 4750 
z
" transform="scale(0.015625)"/>
       <path id="DejaVuSans-29" d="M 513 4856 
L 1013 4856 
Q 1481 4119 1714 3412 
Q 1947 2706 1947 2009 
Q 1947 1309 1714 600 
Q 1481 -109 1013 -844 
L 513 -844 
Q 928 -128 1133 580 
Q 1338 1288 1338 2009 
Q 1338 2731 1133 3434 
Q 928 4138 513 4856 
z
" transform="scale(0.015625)"/>
      </defs>
      <use xlink:href="#DejaVuSans-45"/>
      <use xlink:href="#DejaVuSans-76" x="63.183594"/>
      <use xlink:href="#DejaVuSans-69" x="122.363281"/>
      <use xlink:href="#DejaVuSans-64" x="150.146484"/>
      <use xlink:href="#DejaVuSans-65" x="213.623047"/>
      <use xlink:href="#DejaVuSans-6e" x="275.146484"/>
      <use xlink:href="#DejaVuSans-63" x="338.525391"/>
      <use xlink:href="#DejaVuSans-65" x="393.505859"/>
      <use xlink:href="#DejaVuSans-20" x="455.029297"/>
      <use xlink:href="#DejaVuSans-61" x="486.816406"/>
      <use xlink:href="#DejaVuSans-63" x="548.095703"/>
      <use xlink:href="#DejaVuSans-63" x="603.076172"/>
      <use xlink:href="#DejaVuSans-75" x="658.056641"/>
      <use xlink:href="#DejaVuSans-72" x="721.435547"/>
      <use xlink:href="#DejaVuSans-61" x="762.548828"/>
      <use xlink:href="#DejaVuSans-63" x="823.828125"/>
      <use xlink:href="#DejaVuSans-79" x="878.808594"/>
      <use xlink:href="#DejaVuSans-20" x="937.988281"/>
      <use xlink:href="#DejaVuSans-28" x="969.775391"/>
      <use xlink:href="#DejaVuSans-25" x="1008.789062"/>
      <use xlink:href="#DejaVuSans-29" x="1103.808594"/>
     </g>
    </g>
   </g>
   <g id="line2d_18">
    <path d="M 52.759296 108.200531 
L 77.557537 96.460561 
L 127.154019 92.435429 
L 176.7505 92.039014 
L 226.346982 92.725116 
" clip-path="url(#p676dc282fa)" style="fill: none; stroke-dasharray: 6,3; stroke-dashoffset: 0; stroke: #666666; stroke-width: 1.5"/>
    <defs>
     <path id="m6d362b4d9a" d="M 0 2.15 
C 0.570187 2.15 1.117097 1.923462 1.52028 1.52028 
C 1.923462 1.117097 2.15 0.570187 2.15 0 
C 2.15 -0.570187 1.923462 -1.117097 1.52028 -1.52028 
C 1.117097 -1.923462 0.570187 -2.15 0 -2.15 
C -0.570187 -2.15 -1.117097 -1.923462 -1.52028 -1.52028 
C -1.923462 -1.117097 -2.15 -0.570187 -2.15 0 
C -2.15 0.570187 -1.923462 1.117097 -1.52028 1.52028 
C -1.117097 1.923462 -0.570187 2.15 0 2.15 
z
" style="stroke: #666666; stroke-width: 0.7"/>
    </defs>
    <g clip-path="url(#p676dc282fa)">
     <use xlink:href="#m6d362b4d9a" x="52.759296" y="108.200531" style="fill: #ffffff; stroke: #666666; stroke-width: 0.7"/>
     <use xlink:href="#m6d362b4d9a" x="77.557537" y="96.460561" style="fill: #ffffff; stroke: #666666; stroke-width: 0.7"/>
     <use xlink:href="#m6d362b4d9a" x="127.154019" y="92.435429" style="fill: #ffffff; stroke: #666666; stroke-width: 0.7"/>
     <use xlink:href="#m6d362b4d9a" x="176.7505" y="92.039014" style="fill: #ffffff; stroke: #666666; stroke-width: 0.7"/>
     <use xlink:href="#m6d362b4d9a" x="226.346982" y="92.725116" style="fill: #ffffff; stroke: #666666; stroke-width: 0.7"/>
    </g>
   </g>
   <g id="line2d_19">
    <path d="M 77.557537 86.321496 
L 127.154019 78.850606 
L 176.7505 73.514256 
L 226.346982 74.581526 
" clip-path="url(#p676dc282fa)" style="fill: none; stroke-dasharray: 3,1.5; stroke-dashoffset: 0; stroke: #0072b2; stroke-width: 1.5"/>
    <defs>
     <path id="m97e76bd5be" d="M -2.15 2.15 
L 2.15 2.15 
L 2.15 -2.15 
L -2.15 -2.15 
z
" style="stroke: #0072b2; stroke-width: 0.7; stroke-linejoin: miter"/>
    </defs>
    <g clip-path="url(#p676dc282fa)">
     <use xlink:href="#m97e76bd5be" x="77.557537" y="86.321496" style="fill: #ffffff; stroke: #0072b2; stroke-width: 0.7; stroke-linejoin: miter"/>
     <use xlink:href="#m97e76bd5be" x="127.154019" y="78.850606" style="fill: #ffffff; stroke: #0072b2; stroke-width: 0.7; stroke-linejoin: miter"/>
     <use xlink:href="#m97e76bd5be" x="176.7505" y="73.514256" style="fill: #ffffff; stroke: #0072b2; stroke-width: 0.7; stroke-linejoin: miter"/>
     <use xlink:href="#m97e76bd5be" x="226.346982" y="74.581526" style="fill: #ffffff; stroke: #0072b2; stroke-width: 0.7; stroke-linejoin: miter"/>
    </g>
   </g>
   <g id="line2d_20">
    <path d="M 77.557537 72.446986 
L 127.154019 60.707017 
L 176.7505 55.370667 
L 226.346982 55.370667 
" clip-path="url(#p676dc282fa)" style="fill: none; stroke: #d55e00; stroke-width: 1.5; stroke-linecap: square"/>
    <defs>
     <path id="m01f1b9a6b5" d="M 0 -2.15 
L -2.15 2.15 
L 2.15 2.15 
z
" style="stroke: #d55e00; stroke-width: 0.7; stroke-linejoin: miter"/>
    </defs>
    <g clip-path="url(#p676dc282fa)">
     <use xlink:href="#m01f1b9a6b5" x="77.557537" y="72.446986" style="fill: #d55e00; stroke: #d55e00; stroke-width: 0.7; stroke-linejoin: miter"/>
     <use xlink:href="#m01f1b9a6b5" x="127.154019" y="60.707017" style="fill: #d55e00; stroke: #d55e00; stroke-width: 0.7; stroke-linejoin: miter"/>
     <use xlink:href="#m01f1b9a6b5" x="176.7505" y="55.370667" style="fill: #d55e00; stroke: #d55e00; stroke-width: 0.7; stroke-linejoin: miter"/>
     <use xlink:href="#m01f1b9a6b5" x="226.346982" y="55.370667" style="fill: #d55e00; stroke: #d55e00; stroke-width: 0.7; stroke-linejoin: miter"/>
    </g>
   </g>
   <g id="patch_3">
    <path d="M 42.84 173.304 
L 42.84 45.936 
" style="fill: none; stroke: #444444; stroke-width: 0.65; stroke-linejoin: miter; stroke-linecap: square"/>
   </g>
   <g id="patch_4">
    <path d="M 42.84 173.304 
L 253.625047 173.304 
" style="fill: none; stroke: #444444; stroke-width: 0.65; stroke-linejoin: miter; stroke-linecap: square"/>
   </g>
   <g id="text_14">
    <!-- 84.2 -->
    <g style="fill: #666666" transform="translate(232.346982 94.932616) scale(0.08 -0.08)">
     <defs>
      <path id="DejaVuSans-2e" d="M 684 794 
L 1344 794 
L 1344 0 
L 684 0 
L 684 794 
z
" transform="scale(0.015625)"/>
     </defs>
     <use xlink:href="#DejaVuSans-38"/>
     <use xlink:href="#DejaVuSans-34" x="63.623047"/>
     <use xlink:href="#DejaVuSans-2e" x="127.246094"/>
     <use xlink:href="#DejaVuSans-32" x="159.033203"/>
    </g>
   </g>
   <g id="text_15">
    <!-- 91.9 -->
    <g style="fill: #0072b2" transform="translate(232.346982 76.789026) scale(0.08 -0.08)">
     <use xlink:href="#DejaVuSans-39"/>
     <use xlink:href="#DejaVuSans-31" x="63.623047"/>
     <use xlink:href="#DejaVuSans-2e" x="127.246094"/>
     <use xlink:href="#DejaVuSans-39" x="159.033203"/>
    </g>
   </g>
   <g id="text_16">
    <!-- 100.0 -->
    <g style="fill: #d55e00" transform="translate(232.346982 57.578167) scale(0.08 -0.08)">
     <use xlink:href="#DejaVuSans-31"/>
     <use xlink:href="#DejaVuSans-30" x="63.623047"/>
     <use xlink:href="#DejaVuSans-30" x="127.246094"/>
     <use xlink:href="#DejaVuSans-2e" x="190.869141"/>
     <use xlink:href="#DejaVuSans-30" x="222.65625"/>
    </g>
   </g>
   <g id="text_17">
    <!-- (a) Moderate -->
    <g transform="translate(111.545023 39.936) scale(0.1 -0.1)">
     <defs>
      <path id="DejaVuSans-Bold-28" d="M 2413 -844 
L 1484 -844 
Q 1006 -72 778 623 
Q 550 1319 550 2003 
Q 550 2688 779 3389 
Q 1009 4091 1484 4856 
L 2413 4856 
Q 2013 4116 1813 3408 
Q 1613 2700 1613 2009 
Q 1613 1319 1811 609 
Q 2009 -100 2413 -844 
z
" transform="scale(0.015625)"/>
      <path id="DejaVuSans-Bold-61" d="M 2106 1575 
Q 1756 1575 1579 1456 
Q 1403 1338 1403 1106 
Q 1403 894 1545 773 
Q 1688 653 1941 653 
Q 2256 653 2472 879 
Q 2688 1106 2688 1447 
L 2688 1575 
L 2106 1575 
z
M 3816 1997 
L 3816 0 
L 2688 0 
L 2688 519 
Q 2463 200 2181 54 
Q 1900 -91 1497 -91 
Q 953 -91 614 226 
Q 275 544 275 1050 
Q 275 1666 698 1953 
Q 1122 2241 2028 2241 
L 2688 2241 
L 2688 2328 
Q 2688 2594 2478 2717 
Q 2269 2841 1825 2841 
Q 1466 2841 1156 2769 
Q 847 2697 581 2553 
L 581 3406 
Q 941 3494 1303 3539 
Q 1666 3584 2028 3584 
Q 2975 3584 3395 3211 
Q 3816 2838 3816 1997 
z
" transform="scale(0.015625)"/>
      <path id="DejaVuSans-Bold-29" d="M 513 -844 
Q 913 -100 1113 609 
Q 1313 1319 1313 2009 
Q 1313 2700 1113 3408 
Q 913 4116 513 4856 
L 1441 4856 
Q 1916 4091 2145 3389 
Q 2375 2688 2375 2003 
Q 2375 1319 2147 623 
Q 1919 -72 1441 -844 
L 513 -844 
z
" transform="scale(0.015625)"/>
      <path id="DejaVuSans-Bold-20" transform="scale(0.015625)"/>
      <path id="DejaVuSans-Bold-4d" d="M 588 4666 
L 2119 4666 
L 3181 2169 
L 4250 4666 
L 5778 4666 
L 5778 0 
L 4641 0 
L 4641 3413 
L 3566 897 
L 2803 897 
L 1728 3413 
L 1728 0 
L 588 0 
L 588 4666 
z
" transform="scale(0.015625)"/>
      <path id="DejaVuSans-Bold-6f" d="M 2203 2784 
Q 1831 2784 1636 2517 
Q 1441 2250 1441 1747 
Q 1441 1244 1636 976 
Q 1831 709 2203 709 
Q 2569 709 2762 976 
Q 2956 1244 2956 1747 
Q 2956 2250 2762 2517 
Q 2569 2784 2203 2784 
z
M 2203 3584 
Q 3106 3584 3614 3096 
Q 4122 2609 4122 1747 
Q 4122 884 3614 396 
Q 3106 -91 2203 -91 
Q 1297 -91 786 396 
Q 275 884 275 1747 
Q 275 2609 786 3096 
Q 1297 3584 2203 3584 
z
" transform="scale(0.015625)"/>
      <path id="DejaVuSans-Bold-64" d="M 2919 2988 
L 2919 4863 
L 4044 4863 
L 4044 0 
L 2919 0 
L 2919 506 
Q 2688 197 2409 53 
Q 2131 -91 1766 -91 
Q 1119 -91 703 423 
Q 288 938 288 1747 
Q 288 2556 703 3070 
Q 1119 3584 1766 3584 
Q 2128 3584 2408 3439 
Q 2688 3294 2919 2988 
z
M 2181 722 
Q 2541 722 2730 984 
Q 2919 1247 2919 1747 
Q 2919 2247 2730 2509 
Q 2541 2772 2181 2772 
Q 1825 2772 1636 2509 
Q 1447 2247 1447 1747 
Q 1447 1247 1636 984 
Q 1825 722 2181 722 
z
" transform="scale(0.015625)"/>
      <path id="DejaVuSans-Bold-65" d="M 4031 1759 
L 4031 1441 
L 1416 1441 
Q 1456 1047 1700 850 
Q 1944 653 2381 653 
Q 2734 653 3104 758 
Q 3475 863 3866 1075 
L 3866 213 
Q 3469 63 3072 -14 
Q 2675 -91 2278 -91 
Q 1328 -91 801 392 
Q 275 875 275 1747 
Q 275 2603 792 3093 
Q 1309 3584 2216 3584 
Q 3041 3584 3536 3087 
Q 4031 2591 4031 1759 
z
M 2881 2131 
Q 2881 2450 2695 2645 
Q 2509 2841 2209 2841 
Q 1884 2841 1681 2658 
Q 1478 2475 1428 2131 
L 2881 2131 
z
" transform="scale(0.015625)"/>
      <path id="DejaVuSans-Bold-72" d="M 3138 2547 
Q 2991 2616 2845 2648 
Q 2700 2681 2553 2681 
Q 2122 2681 1889 2404 
Q 1656 2128 1656 1613 
L 1656 0 
L 538 0 
L 538 3500 
L 1656 3500 
L 1656 2925 
Q 1872 3269 2151 3426 
Q 2431 3584 2822 3584 
Q 2878 3584 2943 3579 
Q 3009 3575 3134 3559 
L 3138 2547 
z
" transform="scale(0.015625)"/>
      <path id="DejaVuSans-Bold-74" d="M 1759 4494 
L 1759 3500 
L 2913 3500 
L 2913 2700 
L 1759 2700 
L 1759 1216 
Q 1759 972 1856 886 
Q 1953 800 2241 800 
L 2816 800 
L 2816 0 
L 1856 0 
Q 1194 0 917 276 
Q 641 553 641 1216 
L 641 2700 
L 84 2700 
L 84 3500 
L 641 3500 
L 641 4494 
L 1759 4494 
z
" transform="scale(0.015625)"/>
     </defs>
     <use xlink:href="#DejaVuSans-Bold-28"/>
     <use xlink:href="#DejaVuSans-Bold-61" x="45.703125"/>
     <use xlink:href="#DejaVuSans-Bold-29" x="113.183594"/>
     <use xlink:href="#DejaVuSans-Bold-20" x="158.886719"/>
     <use xlink:href="#DejaVuSans-Bold-4d" x="193.701172"/>
     <use xlink:href="#DejaVuSans-Bold-6f" x="293.212891"/>
     <use xlink:href="#DejaVuSans-Bold-64" x="361.914062"/>
     <use xlink:href="#DejaVuSans-Bold-65" x="433.496094"/>
     <use xlink:href="#DejaVuSans-Bold-72" x="501.318359"/>
     <use xlink:href="#DejaVuSans-Bold-61" x="550.634766"/>
     <use xlink:href="#DejaVuSans-Bold-74" x="618.115234"/>
     <use xlink:href="#DejaVuSans-Bold-65" x="665.917969"/>
    </g>
   </g>
   <g id="line2d_21">
    <defs>
     <path id="m1904d54a68" d="M -0 3.252691 
L 3.252691 0 
L 0 -3.252691 
L -3.252691 -0 
z
" style="stroke: #222222; stroke-linejoin: miter"/>
    </defs>
    <g clip-path="url(#p676dc282fa)">
     <use xlink:href="#m1904d54a68" x="52.759296" y="98.417223" style="fill: #ffffff; stroke: #222222; stroke-linejoin: miter"/>
    </g>
   </g>
  </g>
  <g id="axes_2">
   <g id="patch_5">
    <path d="M 283.134953 173.304 
L 493.92 173.304 
L 493.92 45.936 
L 283.134953 45.936 
z
" style="fill: #ffffff"/>
   </g>
   <g id="matplotlib.axis_3">
    <g id="xtick_6">
     <g id="line2d_22">
      <g>
       <use xlink:href="#m6a336a2ff8" x="293.05425" y="173.304" style="stroke: #000000; stroke-width: 0.65"/>
      </g>
     </g>
     <g id="text_18">
      <!-- 1 -->
      <g transform="translate(290.50925 185.38275) scale(0.08 -0.08)">
       <use xlink:href="#DejaVuSans-31"/>
      </g>
     </g>
    </g>
    <g id="xtick_7">
     <g id="line2d_23">
      <g>
       <use xlink:href="#m6a336a2ff8" x="317.85249" y="173.304" style="stroke: #000000; stroke-width: 0.65"/>
      </g>
     </g>
     <g id="text_19">
      <!-- 2 -->
      <g transform="translate(315.30749 185.38275) scale(0.08 -0.08)">
       <use xlink:href="#DejaVuSans-32"/>
      </g>
     </g>
    </g>
    <g id="xtick_8">
     <g id="line2d_24">
      <g>
       <use xlink:href="#m6a336a2ff8" x="367.448972" y="173.304" style="stroke: #000000; stroke-width: 0.65"/>
      </g>
     </g>
     <g id="text_20">
      <!-- 4 -->
      <g transform="translate(364.903972 185.38275) scale(0.08 -0.08)">
       <use xlink:href="#DejaVuSans-34"/>
      </g>
     </g>
    </g>
    <g id="xtick_9">
     <g id="line2d_25">
      <g>
       <use xlink:href="#m6a336a2ff8" x="417.045454" y="173.304" style="stroke: #000000; stroke-width: 0.65"/>
      </g>
     </g>
     <g id="text_21">
      <!-- 6 -->
      <g transform="translate(414.500454 185.38275) scale(0.08 -0.08)">
       <use xlink:href="#DejaVuSans-36"/>
      </g>
     </g>
    </g>
    <g id="xtick_10">
     <g id="line2d_26">
      <g>
       <use xlink:href="#m6a336a2ff8" x="466.641935" y="173.304" style="stroke: #000000; stroke-width: 0.65"/>
      </g>
     </g>
     <g id="text_22">
      <!-- 8 -->
      <g transform="translate(464.096935 185.38275) scale(0.08 -0.08)">
       <use xlink:href="#DejaVuSans-38"/>
      </g>
     </g>
    </g>
    <g id="text_23">
     <!-- Number of agents, N -->
     <g transform="translate(341.681774 197.885094) scale(0.09 -0.09)">
      <use xlink:href="#DejaVuSans-4e"/>
      <use xlink:href="#DejaVuSans-75" x="74.804688"/>
      <use xlink:href="#DejaVuSans-6d" x="138.183594"/>
      <use xlink:href="#DejaVuSans-62" x="235.595703"/>
      <use xlink:href="#DejaVuSans-65" x="299.072266"/>
      <use xlink:href="#DejaVuSans-72" x="360.595703"/>
      <use xlink:href="#DejaVuSans-20" x="401.708984"/>
      <use xlink:href="#DejaVuSans-6f" x="433.496094"/>
      <use xlink:href="#DejaVuSans-66" x="494.677734"/>
      <use xlink:href="#DejaVuSans-20" x="529.882812"/>
      <use xlink:href="#DejaVuSans-61" x="561.669922"/>
      <use xlink:href="#DejaVuSans-67" x="622.949219"/>
      <use xlink:href="#DejaVuSans-65" x="686.425781"/>
      <use xlink:href="#DejaVuSans-6e" x="747.949219"/>
      <use xlink:href="#DejaVuSans-74" x="811.328125"/>
      <use xlink:href="#DejaVuSans-73" x="850.537109"/>
      <use xlink:href="#DejaVuSans-2c" x="902.636719"/>
      <use xlink:href="#DejaVuSans-20" x="934.423828"/>
      <use xlink:href="#DejaVuSans-4e" x="966.210938"/>
     </g>
    </g>
   </g>
   <g id="matplotlib.axis_4">
    <g id="ytick_7">
     <g id="line2d_27">
      <path d="M 283.134953 173.304 
L 493.92 173.304 
" clip-path="url(#p1222e345ac)" style="fill: none; stroke: #e4e4e4; stroke-width: 0.55; stroke-linecap: square"/>
     </g>
     <g id="line2d_28">
      <g>
       <use xlink:href="#m502edeb7ee" x="283.134953" y="173.304" style="stroke: #000000; stroke-width: 0.65"/>
      </g>
     </g>
    </g>
    <g id="ytick_8">
     <g id="line2d_29">
      <path d="M 283.134953 149.717333 
L 493.92 149.717333 
" clip-path="url(#p1222e345ac)" style="fill: none; stroke: #e4e4e4; stroke-width: 0.55; stroke-linecap: square"/>
     </g>
     <g id="line2d_30">
      <g>
       <use xlink:href="#m502edeb7ee" x="283.134953" y="149.717333" style="stroke: #000000; stroke-width: 0.65"/>
      </g>
     </g>
    </g>
    <g id="ytick_9">
     <g id="line2d_31">
      <path d="M 283.134953 126.130667 
L 493.92 126.130667 
" clip-path="url(#p1222e345ac)" style="fill: none; stroke: #e4e4e4; stroke-width: 0.55; stroke-linecap: square"/>
     </g>
     <g id="line2d_32">
      <g>
       <use xlink:href="#m502edeb7ee" x="283.134953" y="126.130667" style="stroke: #000000; stroke-width: 0.65"/>
      </g>
     </g>
    </g>
    <g id="ytick_10">
     <g id="line2d_33">
      <path d="M 283.134953 102.544 
L 493.92 102.544 
" clip-path="url(#p1222e345ac)" style="fill: none; stroke: #e4e4e4; stroke-width: 0.55; stroke-linecap: square"/>
     </g>
     <g id="line2d_34">
      <g>
       <use xlink:href="#m502edeb7ee" x="283.134953" y="102.544" style="stroke: #000000; stroke-width: 0.65"/>
      </g>
     </g>
    </g>
    <g id="ytick_11">
     <g id="line2d_35">
      <path d="M 283.134953 78.957333 
L 493.92 78.957333 
" clip-path="url(#p1222e345ac)" style="fill: none; stroke: #e4e4e4; stroke-width: 0.55; stroke-linecap: square"/>
     </g>
     <g id="line2d_36">
      <g>
       <use xlink:href="#m502edeb7ee" x="283.134953" y="78.957333" style="stroke: #000000; stroke-width: 0.65"/>
      </g>
     </g>
    </g>
    <g id="ytick_12">
     <g id="line2d_37">
      <path d="M 283.134953 55.370667 
L 493.92 55.370667 
" clip-path="url(#p1222e345ac)" style="fill: none; stroke: #e4e4e4; stroke-width: 0.55; stroke-linecap: square"/>
     </g>
     <g id="line2d_38">
      <g>
       <use xlink:href="#m502edeb7ee" x="283.134953" y="55.370667" style="stroke: #000000; stroke-width: 0.65"/>
      </g>
     </g>
    </g>
   </g>
   <g id="line2d_39">
    <path d="M 293.05425 151.825192 
L 317.85249 142.162587 
L 367.448972 142.337924 
L 417.045454 143.077389 
L 466.641935 141.819535 
" clip-path="url(#p1222e345ac)" style="fill: none; stroke-dasharray: 6,3; stroke-dashoffset: 0; stroke: #666666; stroke-width: 1.5"/>
    <g clip-path="url(#p1222e345ac)">
     <use xlink:href="#m6d362b4d9a" x="293.05425" y="151.825192" style="fill: #ffffff; stroke: #666666; stroke-width: 0.7"/>
     <use xlink:href="#m6d362b4d9a" x="317.85249" y="142.162587" style="fill: #ffffff; stroke: #666666; stroke-width: 0.7"/>
     <use xlink:href="#m6d362b4d9a" x="367.448972" y="142.337924" style="fill: #ffffff; stroke: #666666; stroke-width: 0.7"/>
     <use xlink:href="#m6d362b4d9a" x="417.045454" y="143.077389" style="fill: #ffffff; stroke: #666666; stroke-width: 0.7"/>
     <use xlink:href="#m6d362b4d9a" x="466.641935" y="141.819535" style="fill: #ffffff; stroke: #666666; stroke-width: 0.7"/>
    </g>
   </g>
   <g id="line2d_40">
    <path d="M 317.85249 145.021345 
L 367.448972 133.281376 
L 417.045454 135.415916 
L 466.641935 135.415916 
" clip-path="url(#p1222e345ac)" style="fill: none; stroke-dasharray: 3,1.5; stroke-dashoffset: 0; stroke: #0072b2; stroke-width: 1.5"/>
    <g clip-path="url(#p1222e345ac)">
     <use xlink:href="#m97e76bd5be" x="317.85249" y="145.021345" style="fill: #ffffff; stroke: #0072b2; stroke-width: 0.7; stroke-linejoin: miter"/>
     <use xlink:href="#m97e76bd5be" x="367.448972" y="133.281376" style="fill: #ffffff; stroke: #0072b2; stroke-width: 0.7; stroke-linejoin: miter"/>
     <use xlink:href="#m97e76bd5be" x="417.045454" y="135.415916" style="fill: #ffffff; stroke: #0072b2; stroke-width: 0.7; stroke-linejoin: miter"/>
     <use xlink:href="#m97e76bd5be" x="466.641935" y="135.415916" style="fill: #ffffff; stroke: #0072b2; stroke-width: 0.7; stroke-linejoin: miter"/>
    </g>
   </g>
   <g id="line2d_41">
    <path d="M 317.85249 139.684995 
L 367.448972 100.196006 
L 417.045454 85.254226 
L 466.641935 73.514256 
" clip-path="url(#p1222e345ac)" style="fill: none; stroke: #d55e00; stroke-width: 1.5; stroke-linecap: square"/>
    <g clip-path="url(#p1222e345ac)">
     <use xlink:href="#m01f1b9a6b5" x="317.85249" y="139.684995" style="fill: #d55e00; stroke: #d55e00; stroke-width: 0.7; stroke-linejoin: miter"/>
     <use xlink:href="#m01f1b9a6b5" x="367.448972" y="100.196006" style="fill: #d55e00; stroke: #d55e00; stroke-width: 0.7; stroke-linejoin: miter"/>
     <use xlink:href="#m01f1b9a6b5" x="417.045454" y="85.254226" style="fill: #d55e00; stroke: #d55e00; stroke-width: 0.7; stroke-linejoin: miter"/>
     <use xlink:href="#m01f1b9a6b5" x="466.641935" y="73.514256" style="fill: #d55e00; stroke: #d55e00; stroke-width: 0.7; stroke-linejoin: miter"/>
    </g>
   </g>
   <g id="patch_6">
    <path d="M 283.134953 173.304 
L 283.134953 45.936 
" style="fill: none; stroke: #444444; stroke-width: 0.65; stroke-linejoin: miter; stroke-linecap: square"/>
   </g>
   <g id="patch_7">
    <path d="M 283.134953 173.304 
L 493.92 173.304 
" style="fill: none; stroke: #444444; stroke-width: 0.65; stroke-linejoin: miter; stroke-linecap: square"/>
   </g>
   <g id="text_24">
    <!-- 63.3 -->
    <g style="fill: #666666" transform="translate(472.641935 144.027035) scale(0.08 -0.08)">
     <defs>
      <path id="DejaVuSans-33" d="M 2597 2516 
Q 3050 2419 3304 2112 
Q 3559 1806 3559 1356 
Q 3559 666 3084 287 
Q 2609 -91 1734 -91 
Q 1441 -91 1130 -33 
Q 819 25 488 141 
L 488 750 
Q 750 597 1062 519 
Q 1375 441 1716 441 
Q 2309 441 2620 675 
Q 2931 909 2931 1356 
Q 2931 1769 2642 2001 
Q 2353 2234 1838 2234 
L 1294 2234 
L 1294 2753 
L 1863 2753 
Q 2328 2753 2575 2939 
Q 2822 3125 2822 3475 
Q 2822 3834 2567 4026 
Q 2313 4219 1838 4219 
Q 1578 4219 1281 4162 
Q 984 4106 628 3988 
L 628 4550 
Q 988 4650 1302 4700 
Q 1616 4750 1894 4750 
Q 2613 4750 3031 4423 
Q 3450 4097 3450 3541 
Q 3450 3153 3228 2886 
Q 3006 2619 2597 2516 
z
" transform="scale(0.015625)"/>
     </defs>
     <use xlink:href="#DejaVuSans-36"/>
     <use xlink:href="#DejaVuSans-33" x="63.623047"/>
     <use xlink:href="#DejaVuSans-2e" x="127.246094"/>
     <use xlink:href="#DejaVuSans-33" x="159.033203"/>
    </g>
   </g>
   <g id="text_25">
    <!-- 66.1 -->
    <g style="fill: #0072b2" transform="translate(472.641935 137.623416) scale(0.08 -0.08)">
     <use xlink:href="#DejaVuSans-36"/>
     <use xlink:href="#DejaVuSans-36" x="63.623047"/>
     <use xlink:href="#DejaVuSans-2e" x="127.246094"/>
     <use xlink:href="#DejaVuSans-31" x="159.033203"/>
    </g>
   </g>
   <g id="text_26">
    <!-- 92.3 -->
    <g style="fill: #d55e00" transform="translate(472.641935 75.721756) scale(0.08 -0.08)">
     <use xlink:href="#DejaVuSans-39"/>
     <use xlink:href="#DejaVuSans-32" x="63.623047"/>
     <use xlink:href="#DejaVuSans-2e" x="127.246094"/>
     <use xlink:href="#DejaVuSans-33" x="159.033203"/>
    </g>
   </g>
   <g id="text_27">
    <!-- (b) Tight -->
    <g transform="translate(363.984508 39.936) scale(0.1 -0.1)">
     <defs>
      <path id="DejaVuSans-Bold-62" d="M 2400 722 
Q 2759 722 2948 984 
Q 3138 1247 3138 1747 
Q 3138 2247 2948 2509 
Q 2759 2772 2400 2772 
Q 2041 2772 1848 2508 
Q 1656 2244 1656 1747 
Q 1656 1250 1848 986 
Q 2041 722 2400 722 
z
M 1656 2988 
Q 1888 3294 2169 3439 
Q 2450 3584 2816 3584 
Q 3463 3584 3878 3070 
Q 4294 2556 4294 1747 
Q 4294 938 3878 423 
Q 3463 -91 2816 -91 
Q 2450 -91 2169 54 
Q 1888 200 1656 506 
L 1656 0 
L 538 0 
L 538 4863 
L 1656 4863 
L 1656 2988 
z
" transform="scale(0.015625)"/>
      <path id="DejaVuSans-Bold-54" d="M 31 4666 
L 4331 4666 
L 4331 3756 
L 2784 3756 
L 2784 0 
L 1581 0 
L 1581 3756 
L 31 3756 
L 31 4666 
z
" transform="scale(0.015625)"/>
      <path id="DejaVuSans-Bold-69" d="M 538 3500 
L 1656 3500 
L 1656 0 
L 538 0 
L 538 3500 
z
M 538 4863 
L 1656 4863 
L 1656 3950 
L 538 3950 
L 538 4863 
z
" transform="scale(0.015625)"/>
      <path id="DejaVuSans-Bold-67" d="M 2919 594 
Q 2688 288 2409 144 
Q 2131 0 1766 0 
Q 1125 0 706 504 
Q 288 1009 288 1791 
Q 288 2575 706 3076 
Q 1125 3578 1766 3578 
Q 2131 3578 2409 3434 
Q 2688 3291 2919 2981 
L 2919 3500 
L 4044 3500 
L 4044 353 
Q 4044 -491 3511 -936 
Q 2978 -1381 1966 -1381 
Q 1638 -1381 1331 -1331 
Q 1025 -1281 716 -1178 
L 716 -306 
Q 1009 -475 1290 -558 
Q 1572 -641 1856 -641 
Q 2406 -641 2662 -400 
Q 2919 -159 2919 353 
L 2919 594 
z
M 2181 2772 
Q 1834 2772 1640 2515 
Q 1447 2259 1447 1791 
Q 1447 1309 1634 1061 
Q 1822 813 2181 813 
Q 2531 813 2725 1069 
Q 2919 1325 2919 1791 
Q 2919 2259 2725 2515 
Q 2531 2772 2181 2772 
z
" transform="scale(0.015625)"/>
      <path id="DejaVuSans-Bold-68" d="M 4056 2131 
L 4056 0 
L 2931 0 
L 2931 347 
L 2931 1625 
Q 2931 2084 2911 2256 
Q 2891 2428 2841 2509 
Q 2775 2619 2662 2680 
Q 2550 2741 2406 2741 
Q 2056 2741 1856 2470 
Q 1656 2200 1656 1722 
L 1656 0 
L 538 0 
L 538 4863 
L 1656 4863 
L 1656 2988 
Q 1909 3294 2193 3439 
Q 2478 3584 2822 3584 
Q 3428 3584 3742 3212 
Q 4056 2841 4056 2131 
z
" transform="scale(0.015625)"/>
     </defs>
     <use xlink:href="#DejaVuSans-Bold-28"/>
     <use xlink:href="#DejaVuSans-Bold-62" x="45.703125"/>
     <use xlink:href="#DejaVuSans-Bold-29" x="117.285156"/>
     <use xlink:href="#DejaVuSans-Bold-20" x="162.988281"/>
     <use xlink:href="#DejaVuSans-Bold-54" x="197.802734"/>
     <use xlink:href="#DejaVuSans-Bold-69" x="266.015625"/>
     <use xlink:href="#DejaVuSans-Bold-67" x="300.292969"/>
     <use xlink:href="#DejaVuSans-Bold-68" x="371.875"/>
     <use xlink:href="#DejaVuSans-Bold-74" x="443.066406"/>
    </g>
   </g>
   <g id="line2d_42">
    <g clip-path="url(#p1222e345ac)">
     <use xlink:href="#m1904d54a68" x="293.05425" y="154.626775" style="fill: #ffffff; stroke: #222222; stroke-linejoin: miter"/>
    </g>
   </g>
  </g>
  <g id="legend_1">
   <g id="line2d_43">
    <path d="M 108.9625 9.43475 
L 117.7625 9.43475 
L 126.5625 9.43475 
" style="fill: none; stroke-dasharray: 6,3; stroke-dashoffset: 0; stroke: #666666; stroke-width: 1.5"/>
    <g>
     <use xlink:href="#m6d362b4d9a" x="117.7625" y="9.43475" style="fill: #ffffff; stroke: #666666; stroke-width: 0.7"/>
    </g>
   </g>
   <g id="text_28">
    <!-- Naive (N=1: MI) -->
    <g transform="translate(130.5625 12.23475) scale(0.08 -0.08)">
     <defs>
      <path id="DejaVuSans-3d" d="M 678 2906 
L 4684 2906 
L 4684 2381 
L 678 2381 
L 678 2906 
z
M 678 1631 
L 4684 1631 
L 4684 1100 
L 678 1100 
L 678 1631 
z
" transform="scale(0.015625)"/>
      <path id="DejaVuSans-3a" d="M 750 794 
L 1409 794 
L 1409 0 
L 750 0 
L 750 794 
z
M 750 3309 
L 1409 3309 
L 1409 2516 
L 750 2516 
L 750 3309 
z
" transform="scale(0.015625)"/>
      <path id="DejaVuSans-4d" d="M 628 4666 
L 1569 4666 
L 2759 1491 
L 3956 4666 
L 4897 4666 
L 4897 0 
L 4281 0 
L 4281 4097 
L 3078 897 
L 2444 897 
L 1241 4097 
L 1241 0 
L 628 0 
L 628 4666 
z
" transform="scale(0.015625)"/>
      <path id="DejaVuSans-49" d="M 628 4666 
L 1259 4666 
L 1259 0 
L 628 0 
L 628 4666 
z
" transform="scale(0.015625)"/>
     </defs>
     <use xlink:href="#DejaVuSans-4e"/>
     <use xlink:href="#DejaVuSans-61" x="74.804688"/>
     <use xlink:href="#DejaVuSans-69" x="136.083984"/>
     <use xlink:href="#DejaVuSans-76" x="163.867188"/>
     <use xlink:href="#DejaVuSans-65" x="223.046875"/>
     <use xlink:href="#DejaVuSans-20" x="284.570312"/>
     <use xlink:href="#DejaVuSans-28" x="316.357422"/>
     <use xlink:href="#DejaVuSans-4e" x="355.371094"/>
     <use xlink:href="#DejaVuSans-3d" x="430.175781"/>
     <use xlink:href="#DejaVuSans-31" x="513.964844"/>
     <use xlink:href="#DejaVuSans-3a" x="577.587891"/>
     <use xlink:href="#DejaVuSans-20" x="611.279297"/>
     <use xlink:href="#DejaVuSans-4d" x="643.066406"/>
     <use xlink:href="#DejaVuSans-49" x="729.345703"/>
     <use xlink:href="#DejaVuSans-29" x="758.837891"/>
    </g>
   </g>
   <g id="line2d_44">
    <path d="M 204.79375 9.43475 
L 213.59375 9.43475 
L 222.39375 9.43475 
" style="fill: none; stroke-dasharray: 3,1.5; stroke-dashoffset: 0; stroke: #0072b2; stroke-width: 1.5"/>
    <g>
     <use xlink:href="#m97e76bd5be" x="213.59375" y="9.43475" style="fill: #ffffff; stroke: #0072b2; stroke-width: 0.7; stroke-linejoin: miter"/>
    </g>
   </g>
   <g id="text_29">
    <!-- Cached -->
    <g transform="translate(226.39375 12.23475) scale(0.08 -0.08)">
     <defs>
      <path id="DejaVuSans-43" d="M 4122 4306 
L 4122 3641 
Q 3803 3938 3442 4084 
Q 3081 4231 2675 4231 
Q 1875 4231 1450 3742 
Q 1025 3253 1025 2328 
Q 1025 1406 1450 917 
Q 1875 428 2675 428 
Q 3081 428 3442 575 
Q 3803 722 4122 1019 
L 4122 359 
Q 3791 134 3420 21 
Q 3050 -91 2638 -91 
Q 1578 -91 968 557 
Q 359 1206 359 2328 
Q 359 3453 968 4101 
Q 1578 4750 2638 4750 
Q 3056 4750 3426 4639 
Q 3797 4528 4122 4306 
z
" transform="scale(0.015625)"/>
      <path id="DejaVuSans-68" d="M 3513 2113 
L 3513 0 
L 2938 0 
L 2938 2094 
Q 2938 2591 2744 2837 
Q 2550 3084 2163 3084 
Q 1697 3084 1428 2787 
Q 1159 2491 1159 1978 
L 1159 0 
L 581 0 
L 581 4863 
L 1159 4863 
L 1159 2956 
Q 1366 3272 1645 3428 
Q 1925 3584 2291 3584 
Q 2894 3584 3203 3211 
Q 3513 2838 3513 2113 
z
" transform="scale(0.015625)"/>
     </defs>
     <use xlink:href="#DejaVuSans-43"/>
     <use xlink:href="#DejaVuSans-61" x="69.824219"/>
     <use xlink:href="#DejaVuSans-63" x="131.103516"/>
     <use xlink:href="#DejaVuSans-68" x="186.083984"/>
     <use xlink:href="#DejaVuSans-65" x="249.462891"/>
     <use xlink:href="#DejaVuSans-64" x="310.986328"/>
    </g>
   </g>
   <g id="line2d_45">
    <path d="M 266.7525 9.43475 
L 275.5525 9.43475 
L 284.3525 9.43475 
" style="fill: none; stroke: #d55e00; stroke-width: 1.5; stroke-linecap: square"/>
    <g>
     <use xlink:href="#m01f1b9a6b5" x="275.5525" y="9.43475" style="fill: #d55e00; stroke: #d55e00; stroke-width: 0.7; stroke-linejoin: miter"/>
    </g>
   </g>
   <g id="text_30">
    <!-- PoolAct -->
    <g transform="translate(288.3525 12.23475) scale(0.08 -0.08)">
     <defs>
      <path id="DejaVuSans-50" d="M 1259 4147 
L 1259 2394 
L 2053 2394 
Q 2494 2394 2734 2622 
Q 2975 2850 2975 3272 
Q 2975 3691 2734 3919 
Q 2494 4147 2053 4147 
L 1259 4147 
z
M 628 4666 
L 2053 4666 
Q 2838 4666 3239 4311 
Q 3641 3956 3641 3272 
Q 3641 2581 3239 2228 
Q 2838 1875 2053 1875 
L 1259 1875 
L 1259 0 
L 628 0 
L 628 4666 
z
" transform="scale(0.015625)"/>
      <path id="DejaVuSans-6c" d="M 603 4863 
L 1178 4863 
L 1178 0 
L 603 0 
L 603 4863 
z
" transform="scale(0.015625)"/>
      <path id="DejaVuSans-41" d="M 2188 4044 
L 1331 1722 
L 3047 1722 
L 2188 4044 
z
M 1831 4666 
L 2547 4666 
L 4325 0 
L 3669 0 
L 3244 1197 
L 1141 1197 
L 716 0 
L 50 0 
L 1831 4666 
z
" transform="scale(0.015625)"/>
     </defs>
     <use xlink:href="#DejaVuSans-50"/>
     <use xlink:href="#DejaVuSans-6f" x="56.677734"/>
     <use xlink:href="#DejaVuSans-6f" x="117.859375"/>
     <use xlink:href="#DejaVuSans-6c" x="179.041016"/>
     <use xlink:href="#DejaVuSans-41" x="206.824219"/>
     <use xlink:href="#DejaVuSans-63" x="273.482422"/>
     <use xlink:href="#DejaVuSans-74" x="328.462891"/>
    </g>
   </g>
   <g id="line2d_46">
    <g>
     <use xlink:href="#m1904d54a68" x="336.96625" y="9.43475" style="fill: #ffffff; stroke: #222222; stroke-linejoin: miter"/>
    </g>
   </g>
   <g id="text_31">
    <!-- ExpGym N=1 (ref.) -->
    <g transform="translate(349.76625 12.23475) scale(0.08 -0.08)">
     <defs>
      <path id="DejaVuSans-78" d="M 3513 3500 
L 2247 1797 
L 3578 0 
L 2900 0 
L 1881 1375 
L 863 0 
L 184 0 
L 1544 1831 
L 300 3500 
L 978 3500 
L 1906 2253 
L 2834 3500 
L 3513 3500 
z
" transform="scale(0.015625)"/>
      <path id="DejaVuSans-70" d="M 1159 525 
L 1159 -1331 
L 581 -1331 
L 581 3500 
L 1159 3500 
L 1159 2969 
Q 1341 3281 1617 3432 
Q 1894 3584 2278 3584 
Q 2916 3584 3314 3078 
Q 3713 2572 3713 1747 
Q 3713 922 3314 415 
Q 2916 -91 2278 -91 
Q 1894 -91 1617 61 
Q 1341 213 1159 525 
z
M 3116 1747 
Q 3116 2381 2855 2742 
Q 2594 3103 2138 3103 
Q 1681 3103 1420 2742 
Q 1159 2381 1159 1747 
Q 1159 1113 1420 752 
Q 1681 391 2138 391 
Q 2594 391 2855 752 
Q 3116 1113 3116 1747 
z
" transform="scale(0.015625)"/>
      <path id="DejaVuSans-47" d="M 3809 666 
L 3809 1919 
L 2778 1919 
L 2778 2438 
L 4434 2438 
L 4434 434 
Q 4069 175 3628 42 
Q 3188 -91 2688 -91 
Q 1594 -91 976 548 
Q 359 1188 359 2328 
Q 359 3472 976 4111 
Q 1594 4750 2688 4750 
Q 3144 4750 3555 4637 
Q 3966 4525 4313 4306 
L 4313 3634 
Q 3963 3931 3569 4081 
Q 3175 4231 2741 4231 
Q 1884 4231 1454 3753 
Q 1025 3275 1025 2328 
Q 1025 1384 1454 906 
Q 1884 428 2741 428 
Q 3075 428 3337 486 
Q 3600 544 3809 666 
z
" transform="scale(0.015625)"/>
     </defs>
     <use xlink:href="#DejaVuSans-45"/>
     <use xlink:href="#DejaVuSans-78" x="63.183594"/>
     <use xlink:href="#DejaVuSans-70" x="122.363281"/>
     <use xlink:href="#DejaVuSans-47" x="185.839844"/>
     <use xlink:href="#DejaVuSans-79" x="263.330078"/>
     <use xlink:href="#DejaVuSans-6d" x="322.509766"/>
     <use xlink:href="#DejaVuSans-20" x="419.921875"/>
     <use xlink:href="#DejaVuSans-4e" x="451.708984"/>
     <use xlink:href="#DejaVuSans-3d" x="526.513672"/>
     <use xlink:href="#DejaVuSans-31" x="610.302734"/>
     <use xlink:href="#DejaVuSans-20" x="673.925781"/>
     <use xlink:href="#DejaVuSans-28" x="705.712891"/>
     <use xlink:href="#DejaVuSans-72" x="744.726562"/>
     <use xlink:href="#DejaVuSans-65" x="783.589844"/>
     <use xlink:href="#DejaVuSans-66" x="845.113281"/>
     <use xlink:href="#DejaVuSans-2e" x="873.068359"/>
     <use xlink:href="#DejaVuSans-29" x="904.855469"/>
    </g>
   </g>
  </g>
 </g>
 <defs>
  <clipPath id="p676dc282fa">
   <rect x="42.84" y="45.936" width="210.785047" height="127.368"/>
  </clipPath>
  <clipPath id="p1222e345ac">
   <rect x="283.134953" y="45.936" width="210.785047" height="127.368"/>
  </clipPath>
 </defs>
</svg>
